<?xml version="1.0" encoding="utf-8"?>
<!-- Generator: Adobe Illustrator 21.0.0, SVG Export Plug-In . SVG Version: 6.00 Build 0)  -->
<svg version="1.1" id="logo2.svg" xmlns="http://www.w3.org/2000/svg" xmlns:xlink="http://www.w3.org/1999/xlink" x="0px" y="0px"
	 viewBox="0 0 174 40" style="enable-background:new 0 0 174 40;" xml:space="preserve">
<style type="text/css">
	.st0{fill:#63666A;}
	.st1{fill:none;enable-background:new    ;}
	.st2{fill:#DA1A5D;}
	.st3{fill:#457ABD;}
	.st4{fill:#AACF37;}
</style>
<path id="mobiotics_charcoal" class="st0" d="M65.6,14.5c-1,0-2,0.3-2.8,0.8c-0.4,0.2-0.8,0.5-1.1,0.9l0-0.1l-0.4,0.5
	c-0.1,0.1-0.2,0.2-0.2,0.3c-0.4-0.7-1-1.2-1.7-1.6c-0.6-0.4-1.4-0.7-2.1-0.7l-0.5-0.1l0,0c-0.1,0-0.2,0-0.3,0
	c-1.5,0-2.9,0.6-3.9,1.6c-1,1-1.6,2.4-1.6,3.9v7c0,0.5,0.4,0.9,0.9,0.9c0.3,0,0.5-0.1,0.7-0.3c0.2-0.2,0.3-0.4,0.3-0.6v-7
	c0-1,0.4-1.9,1.1-2.6c0.6-0.7,1.6-1.1,2.5-1.1c0.2,0,0.5,0,0.7,0.1c0.7,0.1,1.3,0.5,1.8,1c0.7,0.7,1.1,1.6,1.1,2.6v7.1l0,0.1
	c0.1,0.2,0.2,0.4,0.4,0.5c0,0,0,0,0.1,0l0.1,0l0.2,0.1h0.4l0.2-0.1c0,0,0.1,0,0.1,0c0,0,0,0,0.1,0c0.2-0.1,0.3-0.3,0.4-0.5l0-0.1
	v-7.1c0-1,0.4-1.9,1.1-2.6c1.3-1.4,3.6-1.4,4.9-0.1c0,0,0.1,0.1,0.1,0.1c0.7,0.7,1.1,1.6,1.1,2.6v7c0,0.2,0.1,0.5,0.3,0.6
	c0.2,0.2,0.4,0.3,0.7,0.3c0.3,0,0.5-0.1,0.7-0.3c0.2-0.2,0.3-0.4,0.3-0.7v-7c0-1.5-0.6-2.9-1.6-3.9C68.4,15.1,67.1,14.5,65.6,14.5z
	 M81.4,14.5c-1.7,0-3.3,0.7-4.5,2c-2.5,2.7-2.5,6.8,0,9.5c2.2,2.5,6,2.7,8.5,0.5c0.2-0.1,0.3-0.3,0.5-0.5c2.5-2.7,2.5-6.8,0-9.5
	C84.8,15.2,83.1,14.5,81.4,14.5L81.4,14.5z M81.4,26.1c-1.2,0-2.3-0.5-3.1-1.4c-1.8-1.9-1.8-4.9,0-6.9c1.5-1.7,4.1-1.9,5.8-0.4
	c0.1,0.1,0.3,0.3,0.4,0.4c1.8,1.9,1.8,4.9,0,6.9C83.8,25.6,82.6,26.1,81.4,26.1z M98.3,14.5c-1,0-2,0.2-2.9,0.7
	c-0.6,0.3-1.2,0.7-1.6,1.2V10c0-0.3-0.1-0.5-0.3-0.7C93.3,9.1,93.1,9,92.8,9c-0.3,0-0.5,0.1-0.7,0.3C92,9.5,91.9,9.7,91.9,10v11.2
	c0,1.8,0.6,3.5,1.9,4.8c0.2,0.2,0.4,0.4,0.6,0.6l0,0c0.2,0.2,0.4,0.3,0.6,0.4l0,0c0.2,0.1,0.3,0.2,0.5,0.3c2.5,1.3,5.5,0.8,7.5-1.3
	c2.5-2.7,2.5-6.8,0-9.5C101.7,15.2,100.1,14.5,98.3,14.5z M98.3,26c-0.9,0-1.8-0.3-2.5-0.8l0,0c-0.2-0.2-0.5-0.4-0.7-0.6
	c-0.9-0.9-1.4-2.2-1.3-3.5v-0.1c0-1.2,0.5-2.4,1.4-3.3c0.8-0.9,2-1.4,3.2-1.3c1.2,0,2.4,0.5,3.2,1.4c1.8,1.9,1.8,4.9,0,6.8
	C100.7,25.6,99.6,26.1,98.3,26L98.3,26z M109.9,14.5c-0.5,0-1,0.4-1,0.9c0,0,0,0,0,0V27c0,0.3,0.1,0.5,0.3,0.7
	c0.2,0.2,0.4,0.3,0.7,0.3c0.3,0,0.5-0.1,0.7-0.3c0.2-0.2,0.3-0.4,0.3-0.7V15.5C110.9,14.9,110.5,14.5,109.9,14.5
	C110,14.5,110,14.5,109.9,14.5L109.9,14.5z M122,14.5c-1.7,0-3.3,0.7-4.5,2c-2.5,2.7-2.5,6.8,0,9.5c2.2,2.5,6,2.7,8.5,0.5
	c0.2-0.1,0.3-0.3,0.5-0.5c2.5-2.7,2.5-6.8,0-9.5C125.3,15.2,123.7,14.5,122,14.5L122,14.5z M122,26.1c-1.2,0-2.3-0.5-3.1-1.4
	c-1.8-1.9-1.8-4.9,0-6.9c1.5-1.7,4.1-1.9,5.8-0.4c0.1,0.1,0.3,0.3,0.4,0.4c1.8,1.9,1.8,4.9,0,6.9C124.3,25.6,123.2,26.1,122,26.1
	L122,26.1z M136.6,14.5h-1.3v-4.4c0-0.3-0.1-0.5-0.3-0.7c-0.2-0.2-0.4-0.3-0.7-0.3c-0.5,0-0.9,0.4-1,1v4.4h-1.3
	c-0.4-0.1-0.8,0.2-0.9,0.6c0,0.1,0,0.3,0,0.4c0,0.2,0,0.4,0.2,0.6c0.2,0.2,0.5,0.3,0.8,0.3h1.3v9c0,1.4,1,2.5,2.4,2.6
	c0,0,0.1,0,0.1,0c0.2,0,0.5-0.1,0.7-0.3c0.2-0.2,0.3-0.4,0.3-0.7c0-0.3-0.1-0.5-0.3-0.7c-0.2-0.2-0.4-0.3-0.7-0.3
	c-0.1,0-0.3-0.1-0.4-0.2c-0.1-0.1-0.2-0.3-0.2-0.4v-9h1.3c0.2,0,0.5-0.1,0.7-0.3c0.4-0.3,0.4-0.9,0-1.3c0,0,0,0,0,0
	C137,14.6,136.8,14.5,136.6,14.5z M143.8,14.5c-0.5,0-1,0.4-1,0.9c0,0,0,0,0,0V27c0,0.3,0.1,0.5,0.3,0.7c0.2,0.2,0.4,0.3,0.7,0.3
	c0.3,0,0.5-0.1,0.7-0.3c0.2-0.2,0.3-0.4,0.3-0.7V15.5C144.7,14.9,144.3,14.5,143.8,14.5C143.8,14.5,143.8,14.5,143.8,14.5z
	 M159.1,25L159.1,25c-0.9,0.7-2.1,1.1-3.3,1.1c-2.7,0-4.8-2.2-4.8-4.9c0-1.3,0.5-2.5,1.4-3.4c0.9-0.9,2.1-1.4,3.3-1.4
	c1.2,0,2.3,0.4,3.3,1.1c0.4,0.3,0.9,0.3,1.2-0.1c0,0,0,0,0-0.1c0.2-0.2,0.3-0.5,0.2-0.7c0-0.3-0.2-0.5-0.4-0.6
	c-1.3-1-2.8-1.5-4.4-1.5c-3.7,0.1-6.7,3.1-6.6,6.8c0,1.8,0.7,3.4,2,4.7c1.3,1.3,3,2,4.9,2c1.5,0,3-0.5,4.2-1.4
	c0.2-0.2,0.4-0.4,0.4-0.7c0-0.3-0.1-0.5-0.2-0.7C160.1,24.8,159.6,24.7,159.1,25C159.1,25,159.1,25,159.1,25L159.1,25z M172.4,21.2
	L172.4,21.2c-1-0.6-2.1-0.9-3.2-1.1h-0.1c-0.9-0.1-1.7-0.4-2.4-0.8c-0.4-0.2-0.6-0.6-0.6-1.1c0.1-0.5,0.3-0.9,0.7-1.2
	c0.6-0.4,1.4-0.7,2.2-0.6c0.4,0,0.7,0.1,1.1,0.2c0.3,0.1,0.6,0.2,0.9,0.4c0.2,0.1,0.5,0.3,1,0.6c0.2,0.1,0.5,0.2,0.7,0.1
	c0.2,0,0.5-0.2,0.6-0.4c0.1-0.2,0.2-0.5,0.1-0.7c0-0.2-0.2-0.5-0.4-0.6l0,0c-0.5-0.3-0.8-0.5-1.1-0.7c-0.4-0.2-0.8-0.4-1.2-0.5
	c-0.5-0.2-1.1-0.3-1.6-0.3c-1.2,0-2.3,0.3-3.3,0.9c-0.9,0.6-1.5,1.7-1.5,2.8c0,1.1,0.6,2.1,1.5,2.6c0.9,0.5,1.9,0.9,2.9,1l0.1,0l0,0
	c0.9,0.1,1.8,0.4,2.6,0.9c0.4,0.3,0.7,0.8,0.7,1.3c0,0.5-0.3,1-0.8,1.3l0,0c-0.7,0.5-1.5,0.8-2.4,0.7c-1.3-0.1-2.5-0.6-3.5-1.4
	c-0.2-0.2-0.4-0.3-0.7-0.2c-0.3,0-0.5,0.2-0.6,0.4c-0.3,0.4-0.3,0.9,0,1.2c0,0,0.1,0,0.1,0.1c1.4,1.2,3.1,1.9,4.9,1.9
	c1.2,0,2.4-0.4,3.4-1.1c1-0.7,1.5-1.7,1.5-2.9C174,22.8,173.4,21.7,172.4,21.2L172.4,21.2z M110,11c-0.5,0-1,0.4-1,1
	c0,0.5,0.4,1,1,1s1-0.4,1-1c0,0,0,0,0,0C110.9,11.4,110.5,11,110,11L110,11z M143.8,12.9c0.5,0,1-0.4,1-1c0-0.5-0.4-1-1-1
	s-1,0.4-1,1c0,0,0,0,0,0C142.8,12.5,143.2,12.9,143.8,12.9z"/>
<path class="st1" d="z"/>
<g>
	<path class="st2" d="M0,1.5C0,1.3,0,1.2,0.1,1.1c5.2-2.7,12-0.7,12,8.4c0,9.3,0,17.7,0,22.1c0,4.2,2.7,5.8,2.9,5.9
		c-2.8,2.6-14,6.4-14-7.9c0-8.1,0-15.8,0-19.9C1,5.7,1,4,0,1.5z"/>
	<path class="st3" d="M19.7,4.7c3.3,0,6.3,2.4,6.3,7.9c0,7.7,0,12.9,0,16.5c0,3.5,2.2,4.8,2.4,4.9c-2.5,2.3-11.6,4-11.6-6.5
		c0-6.7,0-11.3,0-14.7c0-3.4,0-4.7-0.8-6.9C16.9,5.1,18.4,4.7,19.7,4.7z"/>
	<path class="st4" d="M32.9,10.1c2.9-0.1,5.6,2,5.5,6.9c-0.2,6.5-0.2,6.5-0.4,9.5c-0.1,2.9,1.7,4,1.8,4.1c-1.5,2.8-9.8,3-9.5-5.8
		c0.2-5.7,0.2-5.2,0.3-8c0.1-2.8,0.2-4-0.5-5.9C30.7,10.4,32.1,10.2,32.9,10.1z"/>
</g>
</svg>
